<svg id="visual" viewBox="0 0 1920 1080" width="1920" height="1080" xmlns="http://www.w3.org/2000/svg" xmlns:xlink="http://www.w3.org/1999/xlink" version="1.1"><g stroke-width="1" stroke-linejoin="bevel"><path d="M1060.7 552L1046.7 694L1290 695Z" fill="#005b61" stroke="#005b61"></path><path d="M1290 695L1298 528L1060.7 552Z" fill="#29a629" stroke="#29a629"></path><path d="M1046.7 694L1264 874L1290 695Z" fill="#007c67" stroke="#007c67"></path><path d="M1298 528L1050.7 382L1060.7 552Z" fill="#29a629" stroke="#29a629"></path><path d="M831.3 508L865.3 751L1046.7 694Z" fill="#00101c" stroke="#00101c"></path><path d="M1046.7 694L1045.7 922L1264 874Z" fill="#006b69" stroke="#006b69"></path><path d="M831.3 508L1046.7 694L1060.7 552Z" fill="#00101c" stroke="#00101c"></path><path d="M1046.7 694L865.3 751L1045.7 922Z" fill="#051e2b" stroke="#051e2b"></path><path d="M1519.3 881L1504.3 699L1290 695Z" fill="#00101c" stroke="#00101c"></path><path d="M1290 695L1504.3 699L1298 528Z" fill="#005b61" stroke="#005b61"></path><path d="M1462.3 362L1304 320L1298 528Z" fill="#006b69" stroke="#006b69"></path><path d="M1298 528L1304 320L1050.7 382Z" fill="#00101c" stroke="#00101c"></path><path d="M1504.3 699L1502.3 516L1298 528Z" fill="#007c67" stroke="#007c67"></path><path d="M1050.7 382L831.3 508L1060.7 552Z" fill="#007c67" stroke="#007c67"></path><path d="M1502.3 516L1462.3 362L1298 528Z" fill="#051e2b" stroke="#051e2b"></path><path d="M615 751L850.3 888L865.3 751Z" fill="#007c67" stroke="#007c67"></path><path d="M865.3 751L850.3 888L1045.7 922Z" fill="#00101c" stroke="#00101c"></path><path d="M1050.7 382L838.3 372L831.3 508Z" fill="#005b61" stroke="#005b61"></path><path d="M859.3 205L838.3 372L1050.7 382Z" fill="#00101c" stroke="#00101c"></path><path d="M1293 1080L1519.3 881L1264 874Z" fill="#29a629" stroke="#29a629"></path><path d="M1264 874L1519.3 881L1290 695Z" fill="#051e2b" stroke="#051e2b"></path><path d="M1504.3 699L1715.7 561L1502.3 516Z" fill="#004b56" stroke="#004b56"></path><path d="M1457.3 208L1276 208L1304 320Z" fill="#005b61" stroke="#005b61"></path><path d="M1304 320L1276 208L1050.7 382Z" fill="#004b56" stroke="#004b56"></path><path d="M837.3 1080L1064.7 1080L1045.7 922Z" fill="#042c3a" stroke="#042c3a"></path><path d="M1045.7 922L1064.7 1080L1264 874Z" fill="#008b5c" stroke="#008b5c"></path><path d="M1276 208L1063.7 187L1050.7 382Z" fill="#008b5c" stroke="#008b5c"></path><path d="M1064.7 1080L1293 1080L1264 874Z" fill="#007c67" stroke="#007c67"></path><path d="M1697.7 383L1457.3 208L1462.3 362Z" fill="#009949" stroke="#009949"></path><path d="M1462.3 362L1457.3 208L1304 320Z" fill="#007c67" stroke="#007c67"></path><path d="M1276 208L1242 0L1063.7 187Z" fill="#006b69" stroke="#006b69"></path><path d="M1063.7 187L859.3 205L1050.7 382Z" fill="#051e2b" stroke="#051e2b"></path><path d="M608 335L640 550L838.3 372Z" fill="#009949" stroke="#009949"></path><path d="M838.3 372L640 550L831.3 508Z" fill="#00101c" stroke="#00101c"></path><path d="M831.3 508L640 550L865.3 751Z" fill="#003b49" stroke="#003b49"></path><path d="M1720.7 742L1715.7 561L1504.3 699Z" fill="#051e2b" stroke="#051e2b"></path><path d="M1502.3 516L1697.7 383L1462.3 362Z" fill="#29a629" stroke="#29a629"></path><path d="M850.3 888L837.3 1080L1045.7 922Z" fill="#005b61" stroke="#005b61"></path><path d="M641 931L837.3 1080L850.3 888Z" fill="#006b69" stroke="#006b69"></path><path d="M1519.3 881L1720.7 742L1504.3 699Z" fill="#008b5c" stroke="#008b5c"></path><path d="M1709.7 925L1720.7 742L1519.3 881Z" fill="#051e2b" stroke="#051e2b"></path><path d="M640 550L615 751L865.3 751Z" fill="#042c3a" stroke="#042c3a"></path><path d="M1293 1080L1528.3 1080L1519.3 881Z" fill="#007c67" stroke="#007c67"></path><path d="M1715.7 561L1697.7 383L1502.3 516Z" fill="#005b61" stroke="#005b61"></path><path d="M615 751L641 931L850.3 888Z" fill="#009949" stroke="#009949"></path><path d="M1528.3 1080L1709.7 925L1519.3 881Z" fill="#006b69" stroke="#006b69"></path><path d="M859.3 205L608 335L838.3 372Z" fill="#007c67" stroke="#007c67"></path><path d="M640 550L463.7 682L615 751Z" fill="#007c67" stroke="#007c67"></path><path d="M1525.3 0L1242 0L1457.3 208Z" fill="#051e2b" stroke="#051e2b"></path><path d="M1457.3 208L1242 0L1276 208Z" fill="#005b61" stroke="#005b61"></path><path d="M1063.7 187L847.3 0L859.3 205Z" fill="#00101c" stroke="#00101c"></path><path d="M859.3 205L602 203L608 335Z" fill="#007c67" stroke="#007c67"></path><path d="M1242 0L1059.7 0L1063.7 187Z" fill="#006b69" stroke="#006b69"></path><path d="M1528.3 1080L1709.7 1080L1709.7 925Z" fill="#003b49" stroke="#003b49"></path><path d="M1920 755L1715.7 561L1720.7 742Z" fill="#042c3a" stroke="#042c3a"></path><path d="M434.7 566L463.7 682L640 550Z" fill="#009949" stroke="#009949"></path><path d="M615 751L465.7 881L641 931Z" fill="#051e2b" stroke="#051e2b"></path><path d="M1059.7 0L847.3 0L1063.7 187Z" fill="#051e2b" stroke="#051e2b"></path><path d="M660 0L602 203L859.3 205Z" fill="#051e2b" stroke="#051e2b"></path><path d="M608 335L434.7 566L640 550Z" fill="#005b61" stroke="#005b61"></path><path d="M465.7 881L601 1080L641 931Z" fill="#007c67" stroke="#007c67"></path><path d="M641 931L601 1080L837.3 1080Z" fill="#003b49" stroke="#003b49"></path><path d="M1721.7 143L1525.3 0L1457.3 208Z" fill="#005b61" stroke="#005b61"></path><path d="M401.7 373L434.7 566L608 335Z" fill="#009949" stroke="#009949"></path><path d="M1920 188L1721.7 143L1697.7 383Z" fill="#008b5c" stroke="#008b5c"></path><path d="M1697.7 383L1721.7 143L1457.3 208Z" fill="#009949" stroke="#009949"></path><path d="M1920 541L1697.7 383L1715.7 561Z" fill="#006b69" stroke="#006b69"></path><path d="M222.3 891L465.7 881L463.7 682Z" fill="#003b49" stroke="#003b49"></path><path d="M463.7 682L465.7 881L615 751Z" fill="#006b69" stroke="#006b69"></path><path d="M1920 755L1720.7 742L1920 867Z" fill="#006b69" stroke="#006b69"></path><path d="M1920 755L1920 541L1715.7 561Z" fill="#005b61" stroke="#005b61"></path><path d="M1920 867L1720.7 742L1709.7 925Z" fill="#051e2b" stroke="#051e2b"></path><path d="M1920 1080L1920 867L1709.7 925Z" fill="#00101c" stroke="#00101c"></path><path d="M1920 541L1920 373L1697.7 383Z" fill="#003b49" stroke="#003b49"></path><path d="M602 203L401.7 373L608 335Z" fill="#005b61" stroke="#005b61"></path><path d="M222.3 891L460.7 1080L465.7 881Z" fill="#008b5c" stroke="#008b5c"></path><path d="M847.3 0L660 0L859.3 205Z" fill="#004b56" stroke="#004b56"></path><path d="M602 203L427.7 155L401.7 373Z" fill="#007c67" stroke="#007c67"></path><path d="M1920 0L1684.7 0L1721.7 143Z" fill="#009949" stroke="#009949"></path><path d="M1721.7 143L1684.7 0L1525.3 0Z" fill="#007c67" stroke="#007c67"></path><path d="M174.3 705L463.7 682L434.7 566Z" fill="#29a629" stroke="#29a629"></path><path d="M465.7 881L460.7 1080L601 1080Z" fill="#008b5c" stroke="#008b5c"></path><path d="M1709.7 1080L1920 1080L1709.7 925Z" fill="#007c67" stroke="#007c67"></path><path d="M1920 373L1920 188L1697.7 383Z" fill="#051e2b" stroke="#051e2b"></path><path d="M660 0L427.7 155L602 203Z" fill="#051e2b" stroke="#051e2b"></path><path d="M231.3 381L209.3 538L401.7 373Z" fill="#007c67" stroke="#007c67"></path><path d="M401.7 373L209.3 538L434.7 566Z" fill="#00101c" stroke="#00101c"></path><path d="M242.3 205L231.3 381L401.7 373Z" fill="#00101c" stroke="#00101c"></path><path d="M174.3 705L222.3 891L463.7 682Z" fill="#005b61" stroke="#005b61"></path><path d="M1920 188L1920 0L1721.7 143Z" fill="#005b61" stroke="#005b61"></path><path d="M209.3 538L174.3 705L434.7 566Z" fill="#042c3a" stroke="#042c3a"></path><path d="M0 689L174.3 705L0 536Z" fill="#009949" stroke="#009949"></path><path d="M660 0L386.7 0L427.7 155Z" fill="#007c67" stroke="#007c67"></path><path d="M427.7 155L242.3 205L401.7 373Z" fill="#003b49" stroke="#003b49"></path><path d="M386.7 0L242.3 205L427.7 155Z" fill="#009949" stroke="#009949"></path><path d="M0 536L174.3 705L209.3 538Z" fill="#009949" stroke="#009949"></path><path d="M0 912L174.3 1080L222.3 891Z" fill="#006b69" stroke="#006b69"></path><path d="M222.3 891L174.3 1080L460.7 1080Z" fill="#051e2b" stroke="#051e2b"></path><path d="M386.7 0L240.3 0L242.3 205Z" fill="#042c3a" stroke="#042c3a"></path><path d="M0 536L209.3 538L0 390Z" fill="#00101c" stroke="#00101c"></path><path d="M209.3 538L231.3 381L0 390Z" fill="#003b49" stroke="#003b49"></path><path d="M174.3 705L0 912L222.3 891Z" fill="#005b61" stroke="#005b61"></path><path d="M0 390L231.3 381L242.3 205Z" fill="#29a629" stroke="#29a629"></path><path d="M0 175L0 390L242.3 205Z" fill="#042c3a" stroke="#042c3a"></path><path d="M0 689L0 912L174.3 705Z" fill="#007c67" stroke="#007c67"></path><path d="M0 912L0 1080L174.3 1080Z" fill="#007c67" stroke="#007c67"></path><path d="M240.3 0L0 175L242.3 205Z" fill="#051e2b" stroke="#051e2b"></path><path d="M240.3 0L0 0L0 175Z" fill="#009949" stroke="#009949"></path></g></svg>